<svg width="20" height="21" viewBox="0 0 20 21" fill="none" xmlns="http://www.w3.org/2000/svg">
<path d="M7.97536 16.1833C7.81703 16.1833 7.6587 16.125 7.5337 16L2.47536 10.9416C2.35913 10.824 2.29395 10.6653 2.29395 10.5C2.29395 10.3346 2.35913 10.1759 2.47536 10.0583L7.5337 4.99998C7.77536 4.75831 8.17536 4.75831 8.41703 4.99998C8.6587 5.24164 8.6587 5.64164 8.41703 5.88331L3.80036 10.5L8.41703 15.1166C8.6587 15.3583 8.6587 15.7583 8.41703 16C8.30036 16.125 8.1337 16.1833 7.97536 16.1833Z" fill="#030C40"/>
<path d="M17.0836 11.125H3.05859C2.71693 11.125 2.43359 10.8417 2.43359 10.5C2.43359 10.1583 2.71693 9.875 3.05859 9.875H17.0836C17.4253 9.875 17.7086 10.1583 17.7086 10.5C17.7086 10.8417 17.4253 11.125 17.0836 11.125Z" fill="#030C40"/>
</svg>
