<svg width="32" height="32" viewBox="0 0 32 32" fill="none" xmlns="http://www.w3.org/2000/svg">
<g clip-path="url(#clip0_329_2454)">
<path opacity="0.1" d="M22.7153 0H9.30063C3.47373 0 0 3.472 0 9.296V22.688C0 28.528 3.47373 32 9.30063 32H22.6993C28.5262 32 31.9999 28.528 31.9999 22.704V9.296C32.016 3.472 28.5422 0 22.7153 0Z" fill="#D93B2B"/>
<path fill-rule="evenodd" clip-rule="evenodd" d="M10.2839 10.2955C10.4658 10.1138 10.7124 10.0116 10.9695 10.0116C11.2266 10.0116 11.4732 10.1138 11.6551 10.2955L15.818 14.4585L19.9809 10.2955C20.0703 10.2029 20.1773 10.1291 20.2956 10.0782C20.4139 10.0274 20.5412 10.0007 20.6699 9.99955C20.7987 9.99843 20.9264 10.023 21.0456 10.0717C21.1647 10.1205 21.273 10.1925 21.3641 10.2835C21.4551 10.3746 21.5271 10.4828 21.5759 10.602C21.6246 10.7212 21.6492 10.8489 21.648 10.9776C21.6469 11.1064 21.6202 11.2336 21.5693 11.3519C21.5185 11.4702 21.4446 11.5772 21.352 11.6667L17.1891 15.8296L21.352 19.9925C21.5287 20.1754 21.6264 20.4204 21.6242 20.6746C21.622 20.9289 21.52 21.1721 21.3402 21.3519C21.1604 21.5316 20.9172 21.6336 20.663 21.6358C20.4087 21.638 20.1638 21.5403 19.9809 21.3637L15.818 17.2008L11.6551 21.3637C11.4722 21.5403 11.2272 21.638 10.973 21.6358C10.7187 21.6336 10.4755 21.5316 10.2957 21.3519C10.1159 21.1721 10.014 20.9289 10.0117 20.6746C10.0095 20.4204 10.1073 20.1754 10.2839 19.9925L14.4468 15.8296L10.2839 11.6667C10.1021 11.4849 10 11.2383 10 10.9811C10 10.724 10.1021 10.4774 10.2839 10.2955Z" fill="#D93B2B"/>
</g>
<defs>
<clipPath id="clip0_329_2454">
<rect width="32" height="32" rx="12" fill="white"/>
</clipPath>
</defs>
</svg>
