<svg width="24" height="24" viewBox="0 0 24 24" fill="none" xmlns="http://www.w3.org/2000/svg">
<path opacity="0.4" d="M17.98 10.79V14.79C17.98 15.05 17.97 15.3 17.94 15.54C17.71 18.24 16.12 19.58 13.19 19.58H12.79C12.54 19.58 12.3 19.7 12.15 19.9L10.95 21.5C10.42 22.21 9.56 22.21 9.03 21.5L7.83 19.9C7.74996 19.8068 7.65213 19.7305 7.54223 19.6755C7.43234 19.6206 7.3126 19.5881 7.19 19.58H6.79C3.6 19.58 2 18.79 2 14.79V10.79C2 7.86 3.35 6.27 6.04 6.04C6.28 6.01 6.53 6 6.79 6H13.19C16.38 6 17.98 7.6 17.98 10.79Z" fill="white"/>
<path d="M9.988 14C9.428 14 8.988 13.55 8.988 13C8.988 12.45 9.438 12 9.988 12C10.538 12 10.988 12.45 10.988 13C10.988 13.55 10.548 14 9.988 14ZM13.488 14C12.928 14 12.488 13.55 12.488 13C12.488 12.45 12.938 12 13.488 12C14.038 12 14.488 12.45 14.488 13C14.488 13.55 14.038 14 13.488 14ZM6.5 14C5.94 14 5.5 13.55 5.5 13C5.5 12.45 5.95 12 6.5 12C7.05 12 7.5 12.45 7.5 13C7.5 13.55 7.05 14 6.5 14Z" fill="white"/>
<path d="M21.98 6.79V10.79C21.98 13.73 20.63 15.31 17.94 15.54C17.97 15.3 17.98 15.05 17.98 14.79V10.79C17.98 7.6 16.38 6 13.19 6H6.79004C6.53004 6 6.28004 6.01 6.04004 6.04C6.27004 3.35 7.86004 2 10.79 2H17.19C20.38 2 21.98 3.6 21.98 6.79Z" fill="white"/>
</svg>
