<svg width="20" height="20" viewBox="0 0 20 20" fill="none" xmlns="http://www.w3.org/2000/svg">
<path d="M12.4002 12.4998C11.8085 13.0165 11.0418 13.3332 10.2002 13.3332C8.35849 13.3332 6.86682 11.8415 6.86682 9.99984C6.86682 8.15817 8.35849 6.6665 10.2002 6.6665C11.0418 6.6665 11.8085 6.98317 12.4002 7.49984" stroke="white" stroke-opacity="0.8" stroke-width="1.5" stroke-linecap="round" stroke-linejoin="round"/>
<path d="M3.33329 4.99984C2.29163 6.3915 1.66663 8.12484 1.66663 9.99984C1.66663 14.5998 5.39996 18.3332 9.99996 18.3332C14.6 18.3332 18.3333 14.5998 18.3333 9.99984C18.3333 5.39984 14.6 1.6665 9.99996 1.6665C8.80829 1.6665 7.6666 1.91648 6.6416 2.37482" stroke="white" stroke-opacity="0.8" stroke-width="1.5" stroke-linecap="round" stroke-linejoin="round"/>
</svg>
