<svg width="24" height="24" viewBox="0 0 24 24" fill="none" xmlns="http://www.w3.org/2000/svg">
<path d="M18.9396 3.5H5.05957C4.64957 3.5 4.30957 3.16 4.30957 2.75C4.30957 2.34 4.64957 2 5.05957 2H18.9396C19.3496 2 19.6896 2.34 19.6896 2.75C19.6896 3.16 19.3496 3.5 18.9396 3.5ZM18.9396 22H5.05957C4.64957 22 4.30957 21.66 4.30957 21.25C4.30957 20.84 4.64957 20.5 5.05957 20.5H18.9396C19.3496 20.5 19.6896 20.84 19.6896 21.25C19.6896 21.66 19.3496 22 18.9396 22Z" fill="#030C40"/>
<path opacity="0.4" d="M2.75 7.60205V16.4021C2.75 18.0621 4.09 19.4021 5.75 19.4021H18.25C19.91 19.4021 21.25 18.0621 21.25 16.4021V7.60205C21.25 5.94205 19.91 4.60205 18.25 4.60205H5.75C4.09 4.60205 2.75 5.94205 2.75 7.60205Z" fill="#030C40"/>
</svg>
