<svg width="28" height="24" viewBox="0 0 28 24" fill="none" xmlns="http://www.w3.org/2000/svg">
<path d="M2 0.918945H12C12.5304 0.918945 13.0391 1.15331 13.4142 1.57049C13.7893 1.98767 14 2.55349 14 3.14347C14 3.73345 13.7893 4.29927 13.4142 4.71645C13.0391 5.13363 12.5304 5.368 12 5.368H2C1.46957 5.368 0.960859 5.13363 0.585786 4.71645C0.210714 4.29927 0 3.73345 0 3.14347C0 2.55349 0.210714 1.98767 0.585786 1.57049C0.960859 1.15331 1.46957 0.918945 2 0.918945V0.918945ZM16 18.7151H26C26.5304 18.7151 27.0391 18.9495 27.4142 19.3667C27.7893 19.7839 28 20.3497 28 20.9397C28 21.5297 27.7893 22.0955 27.4142 22.5126C27.0391 22.9298 26.5304 23.1642 26 23.1642H16C15.4696 23.1642 14.9609 22.9298 14.5858 22.5126C14.2107 22.0955 14 21.5297 14 20.9397C14 20.3497 14.2107 19.7839 14.5858 19.3667C14.9609 18.9495 15.4696 18.7151 16 18.7151ZM2 9.81705H26C26.5304 9.81705 27.0391 10.0514 27.4142 10.4686C27.7893 10.8858 28 11.4516 28 12.0416C28 12.6316 27.7893 13.1974 27.4142 13.6145C27.0391 14.0317 26.5304 14.2661 26 14.2661H2C1.46957 14.2661 0.960859 14.0317 0.585786 13.6145C0.210714 13.1974 0 12.6316 0 12.0416C0 11.4516 0.210714 10.8858 0.585786 10.4686C0.960859 10.0514 1.46957 9.81705 2 9.81705Z" fill="white"/>
</svg>
