<svg width="32" height="32" viewBox="0 0 32 32" fill="none" xmlns="http://www.w3.org/2000/svg">
<path d="M16 30.3333C8.09329 30.3333 1.66663 23.9066 1.66663 16C1.66663 8.09329 8.09329 1.66663 16 1.66663C23.9066 1.66663 30.3333 8.09329 30.3333 16C30.3333 23.9066 23.9066 30.3333 16 30.3333ZM16 3.66663C9.19996 3.66663 3.66663 9.19996 3.66663 16C3.66663 22.8 9.19996 28.3333 16 28.3333C22.8 28.3333 28.3333 22.8 28.3333 16C28.3333 9.19996 22.8 3.66663 16 3.66663Z" fill="#006EF5"/>
<path d="M19.3334 17H11.3334C10.7867 17 10.3334 16.5467 10.3334 16C10.3334 15.4533 10.7867 15 11.3334 15H19.3334C19.88 15 20.3334 15.4533 20.3334 16C20.3334 16.5467 19.88 17 19.3334 17Z" fill="#006EF5"/>
<path d="M16.6666 21C16.4133 21 16.1599 20.9066 15.9599 20.7066C15.774 20.5184 15.6697 20.2645 15.6697 20C15.6697 19.7354 15.774 19.4815 15.9599 19.2933L19.2533 16L15.9599 12.7066C15.774 12.5184 15.6697 12.2645 15.6697 12C15.6697 11.7354 15.774 11.4815 15.9599 11.2933C16.3466 10.9066 16.9866 10.9066 17.3733 11.2933L21.3733 15.2933C21.7599 15.68 21.7599 16.32 21.3733 16.7066L17.3733 20.7066C17.1733 20.9066 16.9199 21 16.6666 21Z" fill="#006EF5"/>
</svg>
