<svg width="24" height="25" viewBox="0 0 24 25" fill="none" xmlns="http://www.w3.org/2000/svg">
<g clip-path="url(#clip0_329_2229)">
<path opacity="0.4" d="M12 23C17.523 23 22 18.523 22 13C22 7.477 17.523 3 12 3C6.477 3 2 7.477 2 13C2 18.523 6.477 23 12 23Z" fill="#006EF5"/>
<path d="M10.7399 17.28C10.5499 17.28 10.3599 17.21 10.2099 17.06C10.0704 16.9188 9.99219 16.7284 9.99219 16.53C9.99219 16.3315 10.0704 16.1411 10.2099 16L13.2099 13L10.2099 9.99997C10.0704 9.85884 9.99219 9.6684 9.99219 9.46997C9.99219 9.27154 10.0704 9.08111 10.2099 8.93997C10.4999 8.64997 10.9799 8.64997 11.2699 8.93997L14.7999 12.47C15.0899 12.76 15.0899 13.24 14.7999 13.53L11.2699 17.06C11.1199 17.21 10.9299 17.28 10.7399 17.28Z" fill="#006EF5"/>
</g>
<defs>
<clipPath id="clip0_329_2229">
<rect width="24" height="24" fill="white" transform="translate(0 0.5)"/>
</clipPath>
</defs>
</svg>
