<svg width="24" height="24" viewBox="0 0 24 24" fill="none" xmlns="http://www.w3.org/2000/svg">
<g opacity="0.4">
<path d="M3.5 5.05896V18.939C3.5 19.349 3.16 19.689 2.75 19.689C2.34 19.689 2 19.349 2 18.939V5.05896C2 4.64896 2.34 4.30896 2.75 4.30896C3.16 4.30896 3.5 4.64896 3.5 5.05896ZM22 5.05896V18.939C22 19.349 21.66 19.689 21.25 19.689C20.84 19.689 20.5 19.349 20.5 18.939V5.05896C20.5 4.64896 20.84 4.30896 21.25 4.30896C21.66 4.30896 22 4.64896 22 5.05896Z" fill="#030C40"/>
<path opacity="0.4" d="M7.59961 21.25H16.3996C18.0596 21.25 19.3996 19.91 19.3996 18.25V5.75C19.3996 4.09 18.0596 2.75 16.3996 2.75H7.59961C5.93961 2.75 4.59961 4.09 4.59961 5.75V18.25C4.59961 19.91 5.93961 21.25 7.59961 21.25Z" fill="#030C40"/>
</g>
</svg>
