<svg width="16" height="16" viewBox="0 0 16 16" fill="none" xmlns="http://www.w3.org/2000/svg">
<path opacity="0.4" d="M14.6794 11.2135L12.5927 6.33351C12.2127 5.44018 11.646 4.93351 10.9994 4.90018C10.3594 4.86684 9.73936 5.31351 9.26603 6.16684L7.99936 8.44018C7.73269 8.92018 7.35269 9.20684 6.93936 9.24018C6.51936 9.28018 6.09936 9.06018 5.75936 8.62684L5.61269 8.44018C5.13936 7.84684 4.55269 7.56018 3.95269 7.62018C3.35269 7.68018 2.83936 8.09351 2.49936 8.76684L1.34603 11.0668C0.932693 11.9002 0.972693 12.8668 1.45936 13.6535C1.94603 14.4402 2.79269 14.9135 3.71936 14.9135H12.226C13.1194 14.9135 13.9527 14.4668 14.446 13.7202C14.9527 12.9735 15.0327 12.0335 14.6794 11.2135Z" fill="#555555"/>
<path d="M4.64664 5.58723C5.24426 5.58723 5.81741 5.34983 6.23999 4.92725C6.66257 4.50466 6.89998 3.93152 6.89998 3.3339C6.89998 2.73628 6.66257 2.16313 6.23999 1.74055C5.81741 1.31797 5.24426 1.08057 4.64664 1.08057C4.04902 1.08057 3.47588 1.31797 3.0533 1.74055C2.63071 2.16313 2.39331 2.73628 2.39331 3.3339C2.39331 3.93152 2.63071 4.50466 3.0533 4.92725C3.47588 5.34983 4.04902 5.58723 4.64664 5.58723Z" fill="#555555"/>
</svg>
