<svg width="24" height="25" viewBox="0 0 24 25" fill="none" xmlns="http://www.w3.org/2000/svg">
<path opacity="0.4" d="M12 22.5C17.523 22.5 22 18.023 22 12.5C22 6.977 17.523 2.5 12 2.5C6.477 2.5 2 6.977 2 12.5C2 18.023 6.477 22.5 12 22.5Z" fill="#006EF5"/>
<path d="M13.2601 16.78C13.0701 16.78 12.8801 16.71 12.7301 16.56L9.20012 13.03C9.06064 12.8888 8.98242 12.6984 8.98242 12.5C8.98242 12.3015 9.06064 12.1111 9.20012 11.97L12.7301 8.43997C13.0201 8.14997 13.5001 8.14997 13.7901 8.43997C14.0801 8.72997 14.0801 9.20997 13.7901 9.49997L10.7901 12.5L13.7901 15.5C14.0801 15.79 14.0801 16.27 13.7901 16.56C13.722 16.6315 13.6396 16.688 13.5483 16.7259C13.4571 16.7638 13.3589 16.7822 13.2601 16.78Z" fill="#006EF5"/>
</svg>
