<svg width="24" height="24" viewBox="0 0 24 24" fill="none" xmlns="http://www.w3.org/2000/svg">
<path d="M12 8.75C11.9 8.75 11.81 8.73 11.71 8.69C11.5732 8.63408 11.4563 8.53847 11.3743 8.41549C11.2923 8.29251 11.249 8.1478 11.25 8V2C11.25 1.59 11.59 1.25 12 1.25C12.41 1.25 12.75 1.59 12.75 2V6.19L13.47 5.47C13.76 5.18 14.24 5.18 14.53 5.47C14.82 5.76 14.82 6.24 14.53 6.53L12.53 8.53C12.39 8.67 12.19 8.75 12 8.75Z" fill="#555555"/>
<path d="M12.001 8.75092C11.811 8.75092 11.621 8.68092 11.471 8.53092L9.471 6.53092C9.33152 6.38978 9.2533 6.19935 9.2533 6.00092C9.2533 5.80249 9.33152 5.61206 9.471 5.47092C9.761 5.18092 10.241 5.18092 10.531 5.47092L12.531 7.47092C12.821 7.76092 12.821 8.24092 12.531 8.53092C12.381 8.68092 12.191 8.75092 12.001 8.75092ZM16 22.7499H8C2.25 22.7499 2.25 19.6999 2.25 16.9999V15.9999C2.25 13.7699 2.25 11.2499 7 11.2499C8.19 11.2499 8.63 11.5399 9.25 11.9999C9.28 12.0299 9.32 12.0499 9.35 12.0899L10.37 13.1699C11.23 14.0799 12.79 14.0799 13.65 13.1699L14.67 12.0899C14.7 12.0599 14.73 12.0299 14.77 11.9999C15.39 11.5299 15.83 11.2499 17.02 11.2499C21.77 11.2499 21.77 13.7699 21.77 15.9999V16.9999C21.75 20.8199 19.82 22.7499 16 22.7499ZM7 12.7499C3.75 12.7499 3.75 13.7699 3.75 15.9999V16.9999C3.75 19.7399 3.75 21.2499 8 21.2499H16C18.98 21.2499 20.25 19.9799 20.25 16.9999V15.9999C20.25 13.7699 20.25 12.7499 17 12.7499C16.28 12.7499 16.13 12.8399 15.7 13.1599L14.73 14.1899C14.3802 14.5633 13.9573 14.8608 13.4877 15.0638C13.018 15.2668 12.5116 15.371 12 15.3699C11.4884 15.371 10.982 15.2668 10.5123 15.0638C10.0427 14.8608 9.61979 14.5633 9.27 14.1899L8.3 13.1599C7.87 12.8399 7.72 12.7499 7 12.7499Z" fill="#555555"/>
<path d="M5 12.7498C4.59 12.7498 4.25 12.4098 4.25 11.9998V7.99978C4.25 6.05978 4.25 3.64978 7.93 3.29978C8.34 3.25978 8.71 3.55978 8.75 3.97978C8.79 4.38978 8.49 4.75978 8.07 4.79978C5.75 5.00978 5.75 5.94978 5.75 7.99978V11.9998C5.75 12.4098 5.41 12.7498 5 12.7498ZM19.001 12.7478C18.591 12.7478 18.251 12.4078 18.251 11.9978V7.99778C18.251 5.94778 18.251 5.00778 15.931 4.78778C15.7335 4.76757 15.5522 4.66992 15.4266 4.51622C15.301 4.36252 15.2414 4.1653 15.261 3.96778C15.301 3.55778 15.661 3.24778 16.081 3.29778C19.761 3.64778 19.761 6.05778 19.761 7.99778V11.9978C19.7558 12.1968 19.6738 12.3861 19.5321 12.5259C19.3904 12.6657 19.2001 12.7453 19.001 12.7478Z" fill="#555555"/>
</svg>
