<svg width="24" height="24" viewBox="0 0 24 24" fill="none" xmlns="http://www.w3.org/2000/svg">
<path opacity="0.4" d="M11.01 20.02C13.3996 20.02 15.6913 19.0707 17.381 17.381C19.0707 15.6913 20.02 13.3996 20.02 11.01C20.02 8.6204 19.0707 6.32867 17.381 4.63897C15.6913 2.94927 13.3996 2 11.01 2C8.6204 2 6.32867 2.94927 4.63897 4.63897C2.94927 6.32867 2 8.6204 2 11.01C2 13.3996 2.94927 15.6913 4.63897 17.381C6.32867 19.0707 8.6204 20.02 11.01 20.02Z" fill="#030C40"/>
<path d="M14.25 11C14.25 11.41 13.91 11.75 13.5 11.75H11.75V13.5C11.75 13.91 11.41 14.25 11 14.25C10.59 14.25 10.25 13.91 10.25 13.5V11.75H8.5C8.09 11.75 7.75 11.41 7.75 11C7.75 10.59 8.09 10.25 8.5 10.25H10.25V8.5C10.25 8.09 10.59 7.75 11 7.75C11.41 7.75 11.75 8.09 11.75 8.5V10.25H13.5C13.91 10.25 14.25 10.59 14.25 11ZM21.99 18.95C21.66 18.34 20.96 18 20.02 18C19.31 18 18.7 18.29 18.34 18.79C17.98 19.29 17.9 19.96 18.12 20.63C18.55 21.93 19.3 22.22 19.71 22.27C19.77 22.28 19.83 22.28 19.9 22.28C20.34 22.28 21.02 22.09 21.68 21.1C22.21 20.33 22.31 19.56 21.99 18.95Z" fill="#030C40"/>
</svg>
